PathFileType	4	(X/Y/Z)	s01c0403.trc
DataRate	CameraRate	NumFrames	NumMarkers	Units	OrigDataRate	OrigDataStartFrame	OrigNumFrames
200	200	4	47	mm	200	1750	2000
Frame#	Time	racr			lacr			c7			jug			rlel			rdr			llel			ldr			lic			ric			lasi			rasi			rpsi			lpsi			rgt			lgt			rth1			rth2			rth3			rth4			rlfc			rsh1			rsh2			rsh3			rsh4			rlmal			rmmal			rcal			rtoe			rmt5			lth1			lth2			lth4			lth3			llfc			lsh1			lsh2			lsh3			lsh4			llmal			lmmal			lcal			ltoe			lmt5			SBIKE			LBIKE			RBIKE			
		X1	Y1	Z1	X2	Y2	Z2	X3	Y3	Z3	X4	Y4	Z4	X5	Y5	Z5	X6	Y6	Z6	X7	Y7	Z7	X8	Y8	Z8	X9	Y9	Z9	X10	Y10	Z10	X11	Y11	Z11	X12	Y12	Z12	X13	Y13	Z13	X14	Y14	Z14	X15	Y15	Z15	X16	Y16	Z16	X17	Y17	Z17	X18	Y18	Z18	X19	Y19	Z19	X20	Y20	Z20	X21	Y21	Z21	X22	Y22	Z22	X23	Y23	Z23	X24	Y24	Z24	X25	Y25	Z25	X26	Y26	Z26	X27	Y27	Z27	X28	Y28	Z28	X29	Y29	Z29	X30	Y30	Z30	X31	Y31	Z31	X32	Y32	Z32	X33	Y33	Z33	X34	Y34	Z34	X35	Y35	Z35	X36	Y36	Z36	X37	Y37	Z37	X38	Y38	Z38	X39	Y39	Z39	X40	Y40	Z40	X41	Y41	Z41	X42	Y42	Z42	X43	Y43	Z43	X44	Y44	Z44	X45	Y45	Z45	X46	Y46	Z46	X47	Y47	Z47	
1750	8.7500	733.021414	1333.891800	-64.264825	762.372578	1260.574618	-435.061640	742.613348	1392.786240	-246.642729	716.183129	1221.569616	-246.637435	592.389913	1089.495657	48.130217	711.896034	893.178072	-49.513944	569.730996	1080.455317	-583.029844	687.701414	892.785702	-488.095993	382.235182	1188.781316	-438.916316	347.988873	1217.980336	-118.288185	394.222364	1148.515780	-451.439646	375.908207	1172.020256	-150.213537	229.630668	1259.195614	-235.571710	235.869990	1252.744563	-342.425050	302.596916	1125.387984	-82.306977	274.395165	1061.611269	-459.497743	398.568039	1044.887102	-65.267548	474.277449	1009.697346	-62.935798	552.920967	964.771940	-69.565321	500.519448	1056.542014	-82.794869	618.850721	882.687852	-89.122470	531.617852	817.667793	-63.531107	467.404924	761.841223	-68.753212	394.840698	711.574239	-82.648056	499.200361	725.462907	-103.632033	281.512351	640.778083	-108.168312	323.383480	624.739972	-184.190764	228.466231	648.360232	-164.425111	400.324350	438.131592	-149.181057	308.552545	495.522424	-80.102235	267.907144	942.686922	-468.973850	293.159680	856.461765	-469.989333	344.426121	869.735642	-472.677269	306.633619	773.661228	-454.281988	322.730337	648.946254	-438.498848	245.839753	571.812959	-466.891511	212.554021	492.327979	-458.357051	178.088937	414.928238	-444.098810	267.087453	472.525638	-437.118316	133.773661	296.979476	-425.676869	162.921359	294.837897	-350.810891	86.099910	298.126035	-386.550920	296.531128	118.075880	-382.322937	198.849116	157.170577	-451.312181	-231.684697	890.134083	-257.974109	-24.583307	80.171855	-458.374950	-24.591790	80.401022	-58.179209	
1751	8.7550	732.295028	1332.612456	-62.379066	762.353158	1260.719633	-432.902989	742.543300	1392.717482	-244.308296	715.825747	1221.673569	-245.250196	590.669109	1088.344485	49.032070	711.615769	893.383224	-49.614799	570.764977	1080.971309	-581.880018	688.160514	892.806471	-487.876955	382.944987	1189.736601	-438.179209	346.509092	1219.176641	-117.967124	394.753313	1149.578909	-450.939381	374.473171	1174.700218	-148.524001	229.177387	1260.218104	-235.900824	235.949635	1253.830457	-342.710575	302.021473	1125.950255	-82.803619	275.668497	1062.701363	-460.097541	397.668369	1045.387704	-66.022177	473.424437	1010.203952	-63.611385	552.192559	965.527260	-69.819726	499.710869	1057.359159	-82.321506	618.392691	885.382247	-89.244032	533.888750	819.270752	-64.074858	470.731431	762.006386	-68.861630	399.139434	710.478595	-83.114574	503.167463	726.293194	-104.063669	285.184009	637.127891	-108.217785	327.378982	622.242400	-184.064364	231.325273	642.485520	-163.890263	410.826657	438.834386	-149.139131	316.996735	492.543117	-79.776260	269.141530	944.030644	-468.919343	293.919231	857.621332	-469.686882	345.235298	870.764087	-473.469031	307.331754	774.898903	-453.585362	323.024169	649.877733	-438.247554	244.634400	574.393668	-466.359199	209.706445	495.653250	-457.723104	173.676345	418.996385	-443.335400	263.888131	474.769618	-436.502752	126.884094	302.010396	-425.174781	156.952908	298.593359	-350.520276	79.167505	303.660073	-385.703347	286.412545	119.994575	-382.431434	189.479162	161.098037	-450.970410	-231.696267	890.184979	-257.815154	-24.592133	80.257220	-458.320690	-24.607406	80.418318	-58.156870	
1752	8.7600	731.696149	1331.193906	-60.498072	762.278530	1260.764513	-430.876170	742.443802	1392.163870	-241.768365	715.472674	1221.795882	-243.909029	588.903056	1087.093190	49.854693	711.215453	893.698877	-49.712757	571.660450	1081.424371	-580.723999	688.604011	892.838975	-487.681886	383.275745	1191.347691	-437.642061	344.900760	1220.723822	-117.730782	395.372994	1151.109656	-450.685497	373.806149	1176.123320	-148.012380	228.634448	1261.480864	-236.149596	235.915324	1255.172942	-342.919652	301.401848	1126.540197	-83.368275	277.057168	1063.998835	-460.673817	396.853195	1045.691312	-66.710065	472.431901	1010.443459	-64.281606	551.218283	965.750641	-70.171856	498.993793	1057.755590	-82.263219	618.357649	887.272846	-90.415692	535.391438	819.645828	-65.108069	473.117952	761.286171	-69.308701	402.237707	708.851418	-83.655442	506.075959	725.969965	-104.375326	288.335527	632.546607	-108.037411	330.865231	618.945169	-183.922819	233.817813	635.518167	-163.296977	421.095041	439.174843	-149.042966	325.165153	488.801976	-79.296216	270.881419	945.370623	-468.726348	295.541866	858.835699	-469.046942	346.904689	872.019767	-473.481399	309.190833	776.298567	-452.549954	324.485532	651.060676	-437.696045	244.507137	577.191220	-465.604926	207.787353	499.362721	-456.873738	170.129645	423.455497	-442.450076	261.572573	477.254646	-435.572074	120.766701	307.484850	-424.395762	151.399496	302.997797	-350.106275	72.899116	309.955063	-384.744476	276.431703	122.080832	-382.360425	180.447964	165.663952	-450.541231	-231.703875	890.240782	-257.666493	-24.613395	80.331924	-458.296247	-24.613321	80.437080	-58.139939	
1753	8.7650	731.196578	1329.554405	-58.655742	762.167765	1260.878962	-428.927068	742.349899	1391.675463	-239.469146	715.125286	1221.937006	-242.617592	586.965818	1085.935684	50.681461	710.796638	893.881483	-49.797028	572.458215	1081.842586	-579.561222	688.990738	892.891016	-487.511683	383.376298	1193.409389	-437.342704	343.165016	1222.409647	-117.586669	395.791643	1152.929677	-450.498811	373.025860	1177.535488	-147.341904	228.253208	1262.359735	-236.485423	235.764690	1256.596159	-342.996418	300.681261	1127.013843	-83.967292	278.429572	1065.429409	-461.181484	396.030101	1045.851370	-67.435791	471.540329	1010.271741	-65.095514	550.090905	965.379025	-70.769457	498.325765	1057.690818	-82.501005	617.701320	888.109791	-91.274727	536.147476	818.860458	-66.459089	474.373160	759.756756	-70.081234	404.149607	706.524629	-83.975565	507.908409	724.348702	-104.642119	291.291790	626.809114	-107.654684	333.932233	614.738732	-183.796701	236.030314	627.792239	-162.464068	430.502502	438.933478	-148.781225	333.059838	484.421839	-78.811805	273.122156	946.468785	-468.379563	297.965511	860.062048	-468.149489	349.313239	873.580771	-472.833167	312.237457	777.709357	-451.314672	326.996490	652.512498	-436.855120	245.310242	580.363557	-464.738926	206.787059	503.376727	-455.867821	167.338820	428.410678	-441.468376	260.095889	479.991156	-434.470319	115.176901	313.903016	-423.848144	146.298999	308.059653	-349.560465	67.277440	317.116247	-383.720252	266.698389	124.729345	-382.206432	171.457011	170.741344	-450.340048	-231.685836	890.293443	-257.463357	-24.597897	80.407971	-458.245486	-24.608565	80.457105	-58.109779	
